<mxfile host="app.diagrams.net" agent="Mozilla/5.0 (Windows NT 10.0; Win64; x64) AppleWebKit/537.36 (KHTML, like Gecko) Chrome/129.0.0.0 Safari/537.36" version="24.7.16">
  <diagram name="Page-1" id="kQ6XQZewhbkkca1INFuK">
    <mxGraphModel dx="1267" dy="721" grid="1" gridSize="10" guides="1" tooltips="1" connect="1" arrows="1" fold="1" page="1" pageScale="1" pageWidth="850" pageHeight="1100" math="0" shadow="0">
      <root>
        <mxCell id="0" />
        <mxCell id="1" parent="0" />
        <mxCell id="eOjV8caabk8iHue2lWoh-1" value="" style="edgeStyle=orthogonalEdgeStyle;rounded=0;orthogonalLoop=1;jettySize=auto;html=1;" edge="1" parent="1" source="eOjV8caabk8iHue2lWoh-2" target="eOjV8caabk8iHue2lWoh-36">
          <mxGeometry relative="1" as="geometry" />
        </mxCell>
        <mxCell id="eOjV8caabk8iHue2lWoh-2" value="Dataset of&lt;div&gt;Architecture&lt;/div&gt;&lt;div&gt;Decision&lt;/div&gt;&lt;div&gt;Records&lt;/div&gt;" style="shape=parallelogram;html=1;strokeWidth=2;perimeter=parallelogramPerimeter;whiteSpace=wrap;rounded=1;arcSize=12;size=0.23;" vertex="1" parent="1">
          <mxGeometry x="55" y="70" width="110" height="70" as="geometry" />
        </mxCell>
        <mxCell id="eOjV8caabk8iHue2lWoh-3" value="&lt;div&gt;Context&lt;/div&gt;" style="edgeStyle=orthogonalEdgeStyle;rounded=0;orthogonalLoop=1;jettySize=auto;html=1;entryX=0.25;entryY=0;entryDx=0;entryDy=0;" edge="1" parent="1" source="eOjV8caabk8iHue2lWoh-30" target="eOjV8caabk8iHue2lWoh-10">
          <mxGeometry relative="1" as="geometry" />
        </mxCell>
        <mxCell id="eOjV8caabk8iHue2lWoh-4" style="edgeStyle=orthogonalEdgeStyle;rounded=0;orthogonalLoop=1;jettySize=auto;html=1;exitX=0.25;exitY=1;exitDx=0;exitDy=0;entryX=0;entryY=0.25;entryDx=0;entryDy=0;" edge="1" parent="1" source="eOjV8caabk8iHue2lWoh-30" target="eOjV8caabk8iHue2lWoh-23">
          <mxGeometry relative="1" as="geometry" />
        </mxCell>
        <mxCell id="eOjV8caabk8iHue2lWoh-5" style="edgeStyle=orthogonalEdgeStyle;rounded=0;orthogonalLoop=1;jettySize=auto;html=1;" edge="1" parent="1" source="eOjV8caabk8iHue2lWoh-7" target="eOjV8caabk8iHue2lWoh-10">
          <mxGeometry relative="1" as="geometry" />
        </mxCell>
        <mxCell id="eOjV8caabk8iHue2lWoh-7" value="Previous&lt;div&gt;Design&lt;/div&gt;&lt;div&gt;Decision&lt;/div&gt;" style="shape=datastore;whiteSpace=wrap;html=1;" vertex="1" parent="1">
          <mxGeometry x="235" y="280" width="80" height="70" as="geometry" />
        </mxCell>
        <mxCell id="eOjV8caabk8iHue2lWoh-37" value="Retrieve&lt;div&gt;Similar&lt;/div&gt;&lt;div&gt;Design&lt;/div&gt;&lt;div&gt;Decision&lt;/div&gt;" style="edgeStyle=orthogonalEdgeStyle;rounded=0;orthogonalLoop=1;jettySize=auto;html=1;entryX=1;entryY=0.5;entryDx=0;entryDy=0;" edge="1" parent="1" source="eOjV8caabk8iHue2lWoh-10" target="eOjV8caabk8iHue2lWoh-7">
          <mxGeometry relative="1" as="geometry" />
        </mxCell>
        <mxCell id="eOjV8caabk8iHue2lWoh-39" style="edgeStyle=orthogonalEdgeStyle;rounded=0;orthogonalLoop=1;jettySize=auto;html=1;entryX=0.25;entryY=1;entryDx=0;entryDy=0;" edge="1" parent="1" source="eOjV8caabk8iHue2lWoh-10" target="eOjV8caabk8iHue2lWoh-38">
          <mxGeometry relative="1" as="geometry">
            <Array as="points">
              <mxPoint x="475" y="315" />
            </Array>
          </mxGeometry>
        </mxCell>
        <mxCell id="eOjV8caabk8iHue2lWoh-10" value="Prompt&lt;div&gt;Processor&lt;/div&gt;" style="rounded=1;whiteSpace=wrap;html=1;absoluteArcSize=1;arcSize=14;strokeWidth=2;" vertex="1" parent="1">
          <mxGeometry x="425" y="292.5" width="75" height="45" as="geometry" />
        </mxCell>
        <mxCell id="eOjV8caabk8iHue2lWoh-16" value="Few Shot&lt;div&gt;Prompt&lt;/div&gt;" style="edgeStyle=orthogonalEdgeStyle;rounded=0;orthogonalLoop=1;jettySize=auto;html=1;exitX=0.75;exitY=1;exitDx=0;exitDy=0;labelPosition=right;verticalLabelPosition=middle;align=left;verticalAlign=middle;" edge="1" parent="1" source="eOjV8caabk8iHue2lWoh-10" target="eOjV8caabk8iHue2lWoh-14">
          <mxGeometry relative="1" as="geometry">
            <mxPoint x="426.25" y="340" as="sourcePoint" />
            <Array as="points">
              <mxPoint x="481" y="445" />
            </Array>
          </mxGeometry>
        </mxCell>
        <mxCell id="eOjV8caabk8iHue2lWoh-19" value="" style="edgeStyle=orthogonalEdgeStyle;rounded=0;orthogonalLoop=1;jettySize=auto;html=1;entryX=0.25;entryY=1;entryDx=0;entryDy=0;" edge="1" parent="1" source="eOjV8caabk8iHue2lWoh-20" target="eOjV8caabk8iHue2lWoh-10">
          <mxGeometry relative="1" as="geometry">
            <mxPoint x="373.75" y="445" as="targetPoint" />
          </mxGeometry>
        </mxCell>
        <mxCell id="eOjV8caabk8iHue2lWoh-21" value="" style="edgeStyle=orthogonalEdgeStyle;rounded=0;orthogonalLoop=1;jettySize=auto;html=1;" edge="1" parent="1" source="eOjV8caabk8iHue2lWoh-22" target="eOjV8caabk8iHue2lWoh-27">
          <mxGeometry relative="1" as="geometry">
            <Array as="points">
              <mxPoint x="740" y="510" />
              <mxPoint x="740" y="510" />
            </Array>
          </mxGeometry>
        </mxCell>
        <mxCell id="eOjV8caabk8iHue2lWoh-23" value="Model&lt;div&gt;Training&lt;/div&gt;" style="rounded=1;whiteSpace=wrap;html=1;absoluteArcSize=1;arcSize=14;strokeWidth=2;" vertex="1" parent="1">
          <mxGeometry x="373.75" y="550" width="75" height="45" as="geometry" />
        </mxCell>
        <mxCell id="eOjV8caabk8iHue2lWoh-24" style="edgeStyle=orthogonalEdgeStyle;rounded=0;orthogonalLoop=1;jettySize=auto;html=1;entryX=0;entryY=0.75;entryDx=0;entryDy=0;" edge="1" parent="1" source="eOjV8caabk8iHue2lWoh-25" target="eOjV8caabk8iHue2lWoh-23">
          <mxGeometry relative="1" as="geometry" />
        </mxCell>
        <mxCell id="eOjV8caabk8iHue2lWoh-25" value="&lt;div&gt;Encoder&lt;/div&gt;&lt;div&gt;LLM&lt;/div&gt;" style="html=1;align=center;verticalAlign=middle;dashed=0;whiteSpace=wrap;" vertex="1" parent="1">
          <mxGeometry x="126.25" y="570" width="60" height="27.5" as="geometry" />
        </mxCell>
        <mxCell id="eOjV8caabk8iHue2lWoh-26" value="If Valid" style="edgeStyle=orthogonalEdgeStyle;rounded=0;orthogonalLoop=1;jettySize=auto;html=1;exitX=0.75;exitY=1;exitDx=0;exitDy=0;" edge="1" parent="1" source="eOjV8caabk8iHue2lWoh-27" target="eOjV8caabk8iHue2lWoh-28">
          <mxGeometry relative="1" as="geometry">
            <mxPoint x="740" y="600" as="sourcePoint" />
          </mxGeometry>
        </mxCell>
        <mxCell id="eOjV8caabk8iHue2lWoh-27" value="Validator" style="html=1;align=center;verticalAlign=middle;dashed=0;whiteSpace=wrap;" vertex="1" parent="1">
          <mxGeometry x="690" y="557.5" width="60" height="30" as="geometry" />
        </mxCell>
        <mxCell id="eOjV8caabk8iHue2lWoh-28" value="Final&lt;div&gt;Design&lt;div&gt;Decision&lt;/div&gt;&lt;/div&gt;" style="text;html=1;align=center;verticalAlign=middle;resizable=0;points=[];autosize=1;strokeColor=none;fillColor=none;" vertex="1" parent="1">
          <mxGeometry x="700" y="640" width="70" height="60" as="geometry" />
        </mxCell>
        <mxCell id="eOjV8caabk8iHue2lWoh-29" value="Training&lt;div&gt;(done in batch at fixed interval)&lt;/div&gt;" style="shape=umlFrame;whiteSpace=wrap;html=1;pointerEvents=0;recursiveResize=0;container=1;collapsible=0;width=194;dashed=1;fillColor=none;height=30;" vertex="1" parent="1">
          <mxGeometry x="166.25" y="120" width="628.75" height="130" as="geometry" />
        </mxCell>
        <mxCell id="eOjV8caabk8iHue2lWoh-30" value="Context-&lt;div&gt;Decision&lt;/div&gt;&lt;div&gt;pairs&lt;/div&gt;" style="shape=parallelogram;html=1;strokeWidth=2;perimeter=parallelogramPerimeter;whiteSpace=wrap;rounded=1;arcSize=12;size=0.23;" vertex="1" parent="eOjV8caabk8iHue2lWoh-29">
          <mxGeometry x="10" y="42.5" width="100" height="60" as="geometry" />
        </mxCell>
        <mxCell id="eOjV8caabk8iHue2lWoh-40" value="" style="edgeStyle=orthogonalEdgeStyle;rounded=0;orthogonalLoop=1;jettySize=auto;html=1;" edge="1" parent="eOjV8caabk8iHue2lWoh-29" source="eOjV8caabk8iHue2lWoh-38" target="eOjV8caabk8iHue2lWoh-18">
          <mxGeometry relative="1" as="geometry" />
        </mxCell>
        <mxCell id="eOjV8caabk8iHue2lWoh-38" value="Training&lt;div&gt;Data with&lt;/div&gt;&lt;div&gt;Few shot&lt;/div&gt;&lt;div&gt;prompt&lt;/div&gt;" style="shape=parallelogram;html=1;strokeWidth=2;perimeter=parallelogramPerimeter;whiteSpace=wrap;rounded=1;arcSize=12;size=0.23;" vertex="1" parent="eOjV8caabk8iHue2lWoh-29">
          <mxGeometry x="283.75" y="38.75" width="100" height="67.5" as="geometry" />
        </mxCell>
        <mxCell id="eOjV8caabk8iHue2lWoh-12" value="Base&lt;div&gt;Generative&lt;/div&gt;&lt;div&gt;LLM&lt;/div&gt;" style="html=1;align=center;verticalAlign=middle;dashed=0;whiteSpace=wrap;" vertex="1" parent="eOjV8caabk8iHue2lWoh-29">
          <mxGeometry x="538.75" y="47.5" width="70" height="50" as="geometry" />
        </mxCell>
        <mxCell id="eOjV8caabk8iHue2lWoh-18" value="LLM&lt;div&gt;Fine Tuning&lt;/div&gt;" style="rounded=1;whiteSpace=wrap;html=1;absoluteArcSize=1;arcSize=14;strokeWidth=2;" vertex="1" parent="eOjV8caabk8iHue2lWoh-29">
          <mxGeometry x="418.75" y="50" width="75" height="45" as="geometry" />
        </mxCell>
        <mxCell id="eOjV8caabk8iHue2lWoh-11" value="" style="edgeStyle=orthogonalEdgeStyle;rounded=0;orthogonalLoop=1;jettySize=auto;html=1;" edge="1" parent="eOjV8caabk8iHue2lWoh-29" source="eOjV8caabk8iHue2lWoh-12" target="eOjV8caabk8iHue2lWoh-18">
          <mxGeometry relative="1" as="geometry" />
        </mxCell>
        <mxCell id="eOjV8caabk8iHue2lWoh-31" value="Inference&lt;div&gt;(One at a time)&lt;/div&gt;" style="shape=umlFrame;whiteSpace=wrap;html=1;pointerEvents=0;recursiveResize=0;container=1;collapsible=0;width=104;dashed=1;fillColor=none;height=30;" vertex="1" parent="1">
          <mxGeometry x="246.25" y="390" width="533.75" height="85" as="geometry" />
        </mxCell>
        <mxCell id="eOjV8caabk8iHue2lWoh-22" value="Generated&lt;div&gt;Design&lt;/div&gt;&lt;div&gt;Decision&lt;/div&gt;" style="text;html=1;align=center;verticalAlign=middle;resizable=0;points=[];autosize=1;strokeColor=none;fillColor=none;" vertex="1" parent="eOjV8caabk8iHue2lWoh-31">
          <mxGeometry x="453.75" y="25" width="80" height="60" as="geometry" />
        </mxCell>
        <mxCell id="eOjV8caabk8iHue2lWoh-14" value="&lt;div&gt;Fine-Tuned&lt;/div&gt;&lt;div&gt;Generative&lt;/div&gt;&lt;div&gt;LLM&lt;/div&gt;" style="html=1;align=center;verticalAlign=middle;dashed=0;whiteSpace=wrap;" vertex="1" parent="eOjV8caabk8iHue2lWoh-31">
          <mxGeometry x="343.75" y="30" width="70" height="50" as="geometry" />
        </mxCell>
        <mxCell id="eOjV8caabk8iHue2lWoh-13" value="" style="edgeStyle=orthogonalEdgeStyle;rounded=0;orthogonalLoop=1;jettySize=auto;html=1;" edge="1" parent="eOjV8caabk8iHue2lWoh-31" source="eOjV8caabk8iHue2lWoh-14" target="eOjV8caabk8iHue2lWoh-22">
          <mxGeometry relative="1" as="geometry" />
        </mxCell>
        <mxCell id="eOjV8caabk8iHue2lWoh-20" value="&lt;div&gt;Context&lt;/div&gt;" style="text;html=1;align=center;verticalAlign=middle;resizable=0;points=[];autosize=1;strokeColor=none;fillColor=none;" vertex="1" parent="eOjV8caabk8iHue2lWoh-31">
          <mxGeometry x="15" y="40" width="60" height="30" as="geometry" />
        </mxCell>
        <mxCell id="eOjV8caabk8iHue2lWoh-42" value="If Invalid" style="edgeStyle=orthogonalEdgeStyle;rounded=0;orthogonalLoop=1;jettySize=auto;html=1;exitX=0.25;exitY=0;exitDx=0;exitDy=0;labelPosition=right;verticalLabelPosition=middle;align=left;verticalAlign=middle;" edge="1" parent="eOjV8caabk8iHue2lWoh-31" source="eOjV8caabk8iHue2lWoh-27">
          <mxGeometry relative="1" as="geometry">
            <mxPoint x="133.75" y="60" as="targetPoint" />
            <Array as="points">
              <mxPoint x="459" y="110" />
              <mxPoint x="134" y="110" />
            </Array>
          </mxGeometry>
        </mxCell>
        <mxCell id="eOjV8caabk8iHue2lWoh-32" value="Validator&lt;div&gt;Training&lt;/div&gt;" style="shape=umlFrame;whiteSpace=wrap;html=1;pointerEvents=0;recursiveResize=0;container=1;collapsible=0;width=70;dashed=1;fillColor=none;height=40;" vertex="1" parent="1">
          <mxGeometry x="106.25" y="520" width="360" height="90" as="geometry" />
        </mxCell>
        <mxCell id="eOjV8caabk8iHue2lWoh-33" value="After&lt;div&gt;Fine&lt;/div&gt;&lt;div&gt;Tuning&lt;/div&gt;" style="shape=flexArrow;endArrow=classic;html=1;rounded=0;width=5.769230769230769;endSize=3.2384615384615385;exitX=0.5;exitY=1;exitDx=0;exitDy=0;endWidth=7.361111111111111;" edge="1" parent="1" source="eOjV8caabk8iHue2lWoh-18" target="eOjV8caabk8iHue2lWoh-14">
          <mxGeometry width="50" height="50" relative="1" as="geometry">
            <mxPoint x="256.25" y="270" as="sourcePoint" />
            <mxPoint x="306.25" y="220" as="targetPoint" />
          </mxGeometry>
        </mxCell>
        <mxCell id="eOjV8caabk8iHue2lWoh-34" value="After&lt;div&gt;Training&lt;/div&gt;" style="shape=flexArrow;endArrow=classic;html=1;rounded=0;width=5.769230769230769;endSize=3.2384615384615385;exitX=1;exitY=0.5;exitDx=0;exitDy=0;endWidth=7.361111111111111;entryX=0;entryY=0.5;entryDx=0;entryDy=0;" edge="1" parent="1" source="eOjV8caabk8iHue2lWoh-23" target="eOjV8caabk8iHue2lWoh-27">
          <mxGeometry width="50" height="50" relative="1" as="geometry">
            <mxPoint x="486.25" y="570" as="sourcePoint" />
            <mxPoint x="486.25" y="775" as="targetPoint" />
          </mxGeometry>
        </mxCell>
        <mxCell id="eOjV8caabk8iHue2lWoh-35" value="" style="edgeStyle=orthogonalEdgeStyle;rounded=0;orthogonalLoop=1;jettySize=auto;html=1;" edge="1" parent="1" source="eOjV8caabk8iHue2lWoh-36" target="eOjV8caabk8iHue2lWoh-30">
          <mxGeometry relative="1" as="geometry" />
        </mxCell>
        <mxCell id="eOjV8caabk8iHue2lWoh-36" value="Data&lt;div&gt;Cleaning&lt;/div&gt;" style="rounded=1;whiteSpace=wrap;html=1;absoluteArcSize=1;arcSize=14;strokeWidth=2;" vertex="1" parent="1">
          <mxGeometry x="80" y="173.44" width="60" height="38.13" as="geometry" />
        </mxCell>
      </root>
    </mxGraphModel>
  </diagram>
</mxfile>
